<svg width="40" height="40" viewBox="0 0 40 40" fill="none" xmlns="http://www.w3.org/2000/svg">
<path d="M0 6C0 2.68629 2.68629 0 6 0H34C37.3137 0 40 2.68629 40 6V34C40 37.3137 37.3137 40 34 40H6C2.68629 40 0 37.3137 0 34V6Z" fill="#F3F7FC"/>
<path d="M26.5963 17.1273C26.0157 17.1273 25.4852 17.2974 25.0248 17.5777L22.5024 15.0553C22.8127 14.5849 23.0029 14.0143 23.0029 13.4037C23.0029 11.7422 21.6616 10.4009 20 10.4009C18.3384 10.4009 16.9971 11.7422 16.9971 13.4037C16.9971 14.0243 17.1873 14.5949 17.4976 15.0653L14.9852 17.5777C14.5248 17.2874 13.9843 17.1173 13.4037 17.1173C11.7422 17.1173 10.4009 18.4585 10.4009 20.1201C10.4009 21.7817 11.7422 23.123 13.4037 23.123C14.0543 23.123 14.6449 22.9128 15.1354 22.5724L17.4976 24.9347C17.1773 25.4151 16.9971 25.9757 16.9971 26.5963C16.9971 28.2578 18.3384 29.5991 20 29.5991C21.6616 29.5991 23.0029 28.2578 23.0029 26.5963C23.0029 25.9857 22.8227 25.4252 22.5124 24.9547L24.8746 22.5925C25.3651 22.9328 25.9557 23.143 26.5963 23.143C28.2578 23.143 29.5991 21.8017 29.5991 20.1401C29.5991 18.4786 28.2578 17.1373 26.5963 17.1373V17.1273ZM20 23.5934C19.3894 23.5934 18.8189 23.7736 18.3484 24.0939L15.9562 21.7016C16.2364 21.2412 16.4066 20.7107 16.4066 20.1301C16.4066 19.4895 16.1964 18.899 15.8561 18.4085L18.3484 15.9161C18.8189 16.2264 19.3894 16.4066 19.99 16.4066C20.5906 16.4066 21.1711 16.2164 21.6516 15.9061L24.1439 18.3985C23.7936 18.8889 23.5934 19.4795 23.5934 20.1301C23.5934 20.7107 23.7636 21.2512 24.0539 21.7116L21.6616 24.1039C21.1811 23.7836 20.6106 23.6034 20 23.6034V23.5934ZM20 11.602C20.9909 11.602 21.8017 12.4128 21.8017 13.4037C21.8017 14.3947 20.9909 15.2054 20 15.2054C19.0091 15.2054 18.1983 14.3947 18.1983 13.4037C18.1983 12.4128 19.0091 11.602 20 11.602ZM11.602 20.1301C11.602 19.1392 12.4128 18.3284 13.4037 18.3284C14.3947 18.3284 15.2054 19.1392 15.2054 20.1301C15.2054 21.1211 14.3947 21.9318 13.4037 21.9318C12.4128 21.9318 11.602 21.1211 11.602 20.1301ZM20 28.398C19.0091 28.398 18.1983 27.5872 18.1983 26.5963C18.1983 25.6053 19.0091 24.7946 20 24.7946C20.9909 24.7946 21.8017 25.6053 21.8017 26.5963C21.8017 27.5872 20.9909 28.398 20 28.398ZM26.5963 21.9318C25.6053 21.9318 24.7946 21.1211 24.7946 20.1301C24.7946 19.1392 25.6053 18.3284 26.5963 18.3284C27.5872 18.3284 28.398 19.1392 28.398 20.1301C28.398 21.1211 27.5872 21.9318 26.5963 21.9318Z" fill="#3E5FFF"/>
</svg>